<svg xmlns="http://www.w3.org/2000/svg" viewBox="0 0 512 512" width="512" height="512">
  <!-- Background -->
  <rect width="512" height="512" fill="#ffffff" rx="80"/>
  
  <!-- Sun -->
  <circle cx="180" cy="120" r="35" fill="#FFA500"/>
  
  <!-- Palm tree -->
  <ellipse cx="340" cy="240" rx="45" ry="12" fill="#8B4513" transform="rotate(-20 340 240)"/>
  <ellipse cx="370" cy="225" rx="40" ry="10" fill="#8B4513" transform="rotate(-5 370 225)"/>
  <ellipse cx="385" cy="205" rx="38" ry="10" fill="#8B4513" transform="rotate(15 385 205)"/>
  <ellipse cx="375" cy="185" rx="35" ry="8" fill="#8B4513" transform="rotate(30 375 185)"/>
  <rect x="330" y="240" width="18" height="100" fill="#8B4513" rx="9"/>
  
  <!-- House -->
  <rect x="150" y="220" width="150" height="110" fill="#0066CC" rx="8"/>
  <ellipse cx="225" cy="305" rx="28" ry="30" fill="#0052A3"/>
  <rect x="197" y="305" width="56" height="25" fill="#0052A3"/>
  <path d="M 142 220 L 225 160 L 308 220 Z" fill="#0066CC" stroke="#004C99" stroke-width="3"/>
  
  <!-- Wave -->
  <path d="M 100 360 Q 140 345 180 355 Q 220 365 260 350 Q 300 340 340 355 Q 380 365 420 355 L 420 400 L 100 400 Z" fill="#FFD700"/>
  <path d="M 120 375 Q 160 365 200 375 Q 240 385 280 370 Q 320 360 360 375 Q 390 385 420 375 L 420 400 L 120 400 Z" fill="#FFA500" opacity="0.7"/>
  
  <!-- Text PV (compact) -->
  <text x="256" y="470" font-family="Arial, sans-serif" font-size="70" font-weight="bold" fill="#0066CC" text-anchor="middle">PV</text>
</svg>
